# xmcd CD database file
#
# Track frame offsets:
#	183
#	20848
#	43158
#	61500
#	77063
#	98810
#	122833
#	140568
#	159115
#	174238
#	194338
#	208675
#
# Disc length: 2963 seconds
#
# Revision: 2
# Processed by: cddbd v1.5.2PL0 Copyright (c) Steve Scherf et al.
# Submitted via: CDex 1.51
#
DISCID=9c0b910c
DTITLE=Thousand Yard Stare - Mappamundi
DYEAR=1993
DGENRE=Rock
TTITLE0=Version Of Me [all TYS]
TTITLE1=God's P45
TTITLE2=Tragedy No.6
TTITLE3=Debutante
TTITLE4=One And All
TTITLE5=Sooner
TTITLE6=Halfsize
TTITLE7=Small Change
TTITLE8=Monsieur Bour And His Goat
TTITLE9=Naturesway (Earthwatching)
TTITLE10=What's Your Level?
TTITLE11=Downtown Mystic
EXTD=YEAR: 1993
EXTT0=
EXTT1=
EXTT2=
EXTT3=
EXTT4=
EXTT5=
EXTT6=
EXTT7=
EXTT8=
EXTT9=
EXTT10=
EXTT11=
PLAYORDER=
